<svg xmlns="http://www.w3.org/2000/svg" xmlns:xlink="http://www.w3.org/1999/xlink" width="331" height="322" viewBox="0 0 331 322"><defs><clipPath id="a"><rect width="331" height="73.613" transform="translate(570.5 72.887)" fill="#ff0"/></clipPath></defs><g transform="translate(-825.5 -143)"><g transform="translate(830 143)" fill="#ff0" stroke="#000" stroke-width="14"><circle cx="161" cy="161" r="161" stroke="none"/><circle cx="161" cy="161" r="154" fill="none"/></g><circle cx="19" cy="19" r="19" transform="translate(1023 236)"/><circle cx="19" cy="19" r="19" transform="translate(921 236)"/><path d="M801.943,755.058s-23,42.454-68.654,41.037-65.115-41.037-65.115-41.037Z" transform="translate(255.942 -420)" stroke="#000" stroke-width="14"/><g transform="translate(255 107.5)" clip-path="url(#a)"><ellipse cx="39.643" cy="54.627" rx="39.643" ry="54.627" transform="translate(656.257 27.274) rotate(8)"/><ellipse cx="39.643" cy="54.627" rx="39.643" ry="54.627" transform="translate(734.772 38.308) rotate(-8)"/><path d="M1441.554,800.4l75.791-56.986h154.438l75.044,56.986" transform="translate(-859.191 -663.576)" fill="none" stroke="#000" stroke-width="14"/></g></g></svg>